<svg version="1.0" xmlns="http://www.w3.org/2000/svg"
 width="652.000000pt" height="1280.000000pt" viewBox="0 0 652.000000 1280.000000"
 preserveAspectRatio="xMidYMid meet">
<g transform="translate(0.000000,1280.000000) scale(0.100000,-0.100000)"
fill="#000000" stroke="none">
<path d="M0 6529 c0 -4960 3 -6200 13 -6192 246 191 1577 1215 1607 1237 9 6
-4 -7 -27 -29 l-43 -40 86 -87 c47 -49 90 -88 97 -88 7 -1 -17 -28 -53 -61
-36 -33 114 88 333 270 790 658 1302 1094 1301 1107 -1 8 26 -8 60 -35 174
-138 2938 -2281 2942 -2281 2 0 5 1576 6 3503 2 1926 5 3291 8 3032 3 -258 6
-435 8 -392 2 75 3 77 27 77 25 0 25 1 27 98 2 130 15 -199 18 -493 2 -121 5
-206 8 -190 2 17 -1 359 -7 760 -6 402 -18 1162 -26 1690 -20 1321 -34 2179
-45 2845 -6 311 -10 769 -10 1018 l0 452 -3165 0 -3165 0 0 -6201z m1680
-4913 c0 -2 -8 -10 -17 -17 -16 -13 -17 -12 -4 4 13 16 21 21 21 13z"/>
<path d="M6422 5600 c0 -19 2 -27 5 -17 2 9 2 25 0 35 -3 9 -5 1 -5 -18z"/>
<path d="M1579 1183 c-13 -16 -12 -17 4 -4 16 13 21 21 13 21 -2 0 -10 -8 -17
-17z"/>
</g>
</svg>
