
<svg version="1.0" xmlns="http://www.w3.org/2000/svg"
 width="652.000000pt" height="1280.000000pt" viewBox="0 0 652.000000 1280.000000"
 preserveAspectRatio="xMidYMid meet">
<g transform="translate(0.000000,1280.000000) scale(0.100000,-0.100000)"
fill="#000000" stroke="none">
<path d="M0 6530 c0 -3410 2 -6200 5 -6200 3 0 153 114 333 253 426 330 1144
883 1252 964 80 61 71 47 -16 -24 -21 -18 -34 -32 -29 -30 6 1 48 -35 92 -81
45 -45 88 -82 95 -82 7 0 -18 -30 -57 -66 -67 -63 778 638 1371 1137 l281 236
1489 -1153 c819 -635 1492 -1154 1497 -1154 4 0 8 1576 9 3503 2 1926 5 3288
8 3027 3 -261 6 -438 8 -392 2 80 3 82 27 82 23 0 25 4 27 48 3 89 15 -193 18
-423 2 -126 5 -216 8 -200 2 17 -1 363 -7 770 -6 407 -16 1030 -21 1385 -18
1142 -30 1890 -41 2560 -6 360 -14 966 -18 1345 l-6 690 -3162 3 -3163 2 0
-6200z m6397 158 c-2 -13 -4 -5 -4 17 -1 22 1 32 4 23 2 -10 2 -28 0 -40z
m-4687 -5052 c0 -2 -8 -10 -17 -17 -16 -13 -17 -12 -4 4 13 16 21 21 21 13z"/>
<path d="M6423 5605 c0 -22 2 -30 4 -17 2 12 2 30 0 40 -3 9 -5 -1 -4 -23z"/>
<path d="M1569 1173 c-13 -16 -12 -17 4 -4 16 13 21 21 13 21 -2 0 -10 -8 -17
-17z"/>
</g>
</svg>
