
<svg version="1.0" xmlns="http://www.w3.org/2000/svg"
 width="100" height="300" viewBox="0 0 225.000000 225.000000"
 preserveAspectRatio="xMidYMid meet">
<metadata>
Created by potrace 1.15, written by Peter Selinger 2001-2017
</metadata>
<g transform="translate(0.000000,225.000000) scale(0.100000,-0.100000)"
fill="#ffffff" stroke="none">
<path d="M860 2179 c-296 -30 -559 -125 -627 -228 -39 -58 -42 -89 -27 -260
30 -348 126 -867 240 -1301 53 -201 48 -192 146 -230 207 -80 442 -113 665
-92 209 20 446 87 478 136 8 11 34 102 59 201 126 504 206 963 237 1354 12
156 11 158 -50 224 -83 90 -329 168 -620 197 -120 12 -378 11 -501 -1z m585
-64 c355 -47 612 -191 530 -299 -16 -21 -39 -12 -30 13 5 13 4 14 -6 4 -10
-10 -10 -16 -1 -25 7 -7 12 -15 12 -19 0 -21 -164 -94 -183 -82 -6 3 -7 1 -3
-5 7 -11 -11 -17 -41 -13 -7 1 -13 -2 -13 -6 0 -5 -8 -9 -17 -10 -10 -1 -43
-8 -73 -17 -222 -65 -648 -72 -945 -15 -233 44 -374 112 -421 201 -62 118 254
254 666 287 140 12 377 5 525 -14z m-1070 -445 c171 -82 367 -119 670 -127
160 -4 244 -1 353 11 252 29 466 97 555 176 l38 33 -7 -69 c-3 -38 -15 -125
-25 -194 -11 -69 -21 -136 -23 -150 -1 -14 -6 -52 -11 -85 -4 -33 -12 -67 -17
-75 -6 -10 -7 -6 -3 15 4 22 3 26 -5 15 -5 -8 -10 -23 -10 -33 0 -21 -36 -154
-56 -209 -7 -20 -25 -79 -40 -130 -31 -111 -108 -274 -177 -373 -27 -39 -135
-140 -181 -170 -51 -33 -245 -93 -353 -109 -215 -31 -376 -20 -502 36 -59 25
-46 -8 -130 333 -102 413 -176 817 -206 1129 l-7 69 29 -27 c15 -15 64 -45
108 -66z"/>
</g>
</svg>
