<svg width="19" height="19" viewBox="0 0 19 19" fill="none" xmlns="http://www.w3.org/2000/svg">
<path fill-rule="evenodd" clip-rule="evenodd" d="M14.4115 12.3902L18.3112 16.2898C18.8969 16.8757 18.8969 17.8254 18.3112 18.4112C17.7253 18.997 16.7755 18.997 16.1897 18.4112L12.2899 14.5115C12.2782 14.4998 12.2685 14.4869 12.2588 14.474C12.2513 14.4641 12.2439 14.4542 12.2355 14.4449C11.0715 15.2122 9.67825 15.66 8.1798 15.66C4.10392 15.66 0.799805 12.3558 0.799805 8.27997C0.799805 4.20409 4.10399 0.899902 8.17988 0.899902C12.2558 0.899902 15.5599 4.20409 15.5599 8.28005C15.5599 9.77842 15.1121 11.1717 14.3448 12.3357C14.3541 12.344 14.364 12.3515 14.3738 12.3589C14.3868 12.3687 14.3997 12.3784 14.4115 12.3902ZM3.35817 8.27997C3.35817 10.9429 5.51688 13.1016 8.17988 13.1016C10.8427 13.1016 13.0015 10.9429 13.0015 8.27997C13.0015 5.61705 10.8427 3.45827 8.17988 3.45827C5.51695 3.45827 3.35817 5.61698 3.35817 8.27997Z" fill="white"/>
</svg>
