
<svg version="1.0" xmlns="http://www.w3.org/2000/svg"
 width="100.000000pt" height="100.000000pt" viewBox="0 0 100.000000 100.000000"
 preserveAspectRatio="xMidYMid meet">
<g transform="translate(0.000000,100.000000) scale(0.100000,-0.100000)"
fill="#000000" stroke="none">
<path d="M4 946 c-3 -8 -4 -25 -2 -38 2 -18 10 -24 36 -26 27 -3 35 1 39 18 5
20 11 22 65 18 35 -3 65 -11 74 -20 9 -9 54 -167 104 -367 48 -193 96 -363
106 -378 11 -18 17 -43 15 -70 -2 -31 3 -47 18 -62 28 -28 93 -29 121 -1 13
13 20 33 20 60 l0 40 50 0 50 0 0 -40 c0 -53 27 -80 80 -80 70 0 101 62 68
135 l-11 25 -161 1 c-89 1 -172 4 -185 8 -16 4 -29 19 -37 41 -26 74 -35 70
174 70 l189 0 71 190 c40 104 72 199 72 210 0 20 -6 20 -314 20 l-314 0 -22
93 c-26 106 -42 142 -69 157 -11 5 -67 10 -126 10 -82 0 -107 -3 -111 -14z"/>
</g>
</svg>
